# xmcd
#
# Track frame offsets: 
#        150
#        27637
#        50576
#        90497
#        116737
#        145083
#        192660
#        214149
#        236252
#        263872
#        284033
#        304927
#
# Disc length: 4357 seconds
#
# Revision: 0
# Processed by: cddbd v1.5.2PL0 Copyright (c) Steve Scherf et al.
# Submitted via: ExactAudioCopy v0.95a5
#
DISCID=ba11030c
DTITLE=Pistol Pete - Live At Blues
DYEAR=2008
DGENRE=Blues
TTITLE0=My Last Dime
TTITLE1=Look Over Yonder
TTITLE2=Tell Me Why
TTITLE3=Cherrie Pie
TTITLE4=Europa
TTITLE5=Are You Experienced
TTITLE6=Purple Rain
TTITLE7=Freak Of The Week
TTITLE8=Let The Sun Shine Down On Me
TTITLE9=Who Knows
TTITLE10=Going Down
TTITLE11=Bar Funk
EXTD=
EXTT0=
EXTT1=
EXTT2=
EXTT3=
EXTT4=
EXTT5=
EXTT6=
EXTT7=
EXTT8=
EXTT9=
EXTT10=
EXTT11=
PLAYORDER=
